<svg xmlns="http://www.w3.org/2000/svg" width="900" height="900" viewBox="0 0 1024 1024"><linearGradient id="gradient_0" gradientUnits="userSpaceOnUse" x1="721.55103" y1="653.12903" x2="715.95697" y2="478.80301"><stop offset="0" stop-color="#3A8AEA"/><stop offset="1" stop-color="#6DBEF4"/></linearGradient><linearGradient id="gradient_1" gradientUnits="userSpaceOnUse" x1="308.005" y1="654.45398" x2="298.39301" y2="478.134"><stop offset="0" stop-color="#3B8AEA"/><stop offset="1" stop-color="#6DBFF4"/></linearGradient><path fill="#F9F9F8" stroke="#E3EAF3" stroke-width="4" d="M307.067 455.58C328.73 373.53 366.213 281.21 441.99 234.89C512.64 191.71 592.72 225.14 639.8 285.41C677.72 333.94 697.53 386.2 714.54 444.44C715.46 447.59 716.87 451.86 718.1 454.89C725.81 461.9 733.72 470.44 741.48 476.79C768.49 502.49 784.09 532.99 784.95 570.68C785.04 575.59 784.91 580.51 784.56 585.41C780.63 621.77 766.27 652.07 739.99 677.21C738.14 678.98 735.36 681.13 735.12 683.6C735.57 684.61 736.33 685.96 736.86 686.96C736.75 688.92 735.68 691.02 734.65 692.69C701.1 746.91 645.7 784.08 584.58 799.82C512.18 818.64 435.29 808.18 370.551 770.69C339.95 752.94 313.888 728.32 294.419 698.77C292.456 695.78 286.439 687.02 285.656 683.95L286.187 683.42L287.395 683.8C289.137 683.58 288.985 683.8 290.385 682.96C290.344 682.63 290.303 682.31 290.261 681.98C285.603 677.7 277.948 669.69 274.086 665.15C268.057 658.01 262.687 650.33 258.042 642.22C249.098 626.62 241.803 603.68 240.385 585.41C239.741 582.29 239.759 571.36 239.955 567.61C241.773 532.79 257.542 501.06 282.885 477.52C290.343 471.34 300.029 462.31 307.067 455.58Z"/><path fill="#DADCDE" d="M741.48 476.79C768.49 502.49 784.09 532.99 784.95 570.68C785.04 575.59 784.91 580.51 784.56 585.41C780.63 621.77 766.27 652.07 739.99 677.21C738.14 678.98 735.36 681.13 735.12 683.6C735.57 684.61 736.33 685.96 736.86 686.96C736.75 688.92 735.68 691.02 734.65 692.69C701.1 746.91 645.7 784.08 584.58 799.82C512.18 818.64 435.29 808.18 370.551 770.69C339.95 752.94 313.888 728.32 294.419 698.77C292.456 695.78 286.439 687.02 285.656 683.95L286.187 683.42L287.395 683.8C289.137 683.58 288.985 683.8 290.385 682.96C290.344 682.63 290.303 682.31 290.261 681.98C285.603 677.7 277.948 669.69 274.086 665.15C268.057 658.01 262.687 650.33 258.042 642.22C249.098 626.62 241.803 603.68 240.385 585.41C239.741 582.29 239.759 571.36 239.955 567.61C241.773 532.79 257.542 501.06 282.885 477.52C289.142 481.12 293.849 483.28 300.227 487.44C321.982 500.51 341.292 527.05 353.416 548.86C355.949 550.3 358.409 555.06 360.141 557.7C382.714 592.09 397.961 643.02 379.361 682.02C376.334 688.37 369.722 692.6 363.847 695.78C435.45 756.14 563.25 761.66 640.47 708.5C646.86 704.1 654.64 699.26 660.36 694.05C648.39 686.45 643.07 677.65 640.07 663.55C632.85 629.72 644.97 590.1 662.93 561.31C664.53 558.75 668.3 552.99 670.61 551.38C685.51 523.62 699.38 506.28 724.62 487.29C730.13 483.79 736.18 480.57 741.48 476.79Z"/><path fill="#F3A223" d="M456.38 434.49C464.94 417.64 501.23 403.22 519.64 406.66C535.91 409.7 558.8 419.08 568.78 432.91C572.02 440.29 570.73 443.82 565.31 449.56C556.84 494.82 491.53 502.48 467.34 466.22C464.86 462.49 460.84 454.41 460.19 450.01C455.34 443.97 453.99 442.2 456.38 434.49Z"/><path fill="#FBBA2C" d="M456.38 434.49C464.94 417.64 501.23 403.22 519.64 406.66C535.91 409.7 558.8 419.08 568.78 432.91C544.52 452.66 497.56 453.4 469.57 440.93C465.34 439.05 460.73 435.81 456.38 434.49Z"/><path fill="#DADCDE" d="M565.31 449.56C556.84 494.82 491.53 502.48 467.34 466.22C464.86 462.49 460.84 454.41 460.19 450.01C492.45 476.58 533.37 476.97 565.31 449.56Z"/></svg>